<svg width="280" height="280" viewBox="0 0 280 280" fill="none" xmlns="http://www.w3.org/2000/svg">
<path d="M139.402 149.573C180.705 149.573 214.188 116.09 214.188 74.7863C214.188 33.483 180.705 0 139.402 0C98.0983 0 64.6154 33.483 64.6154 74.7863C64.6154 116.09 98.0983 149.573 139.402 149.573Z" fill="#6FD1B1"/>
<path d="M15.5555 280V230.581C15.5555 214.808 20.8 199.682 30.1351 188.529C39.4703 177.377 52.1314 171.111 65.3333 171.111H214.667C227.869 171.111 240.53 177.377 249.865 188.529C259.2 199.682 264.444 214.808 264.444 230.581V280" fill="url(#paint0_linear_170_47)"/>
<defs>
<linearGradient id="paint0_linear_170_47" x1="140" y1="171.111" x2="140" y2="226.154" gradientUnits="userSpaceOnUse">
<stop stop-color="#46CFA2"/>
<stop offset="1" stop-color="#10B981"/>
</linearGradient>
</defs>
</svg>
