<svg width="1767" height="255" viewBox="0 0 1767 255" fill="none" xmlns="http://www.w3.org/2000/svg">
<path d="M192.261 145.051C203.821 142.058 215.102 139.081 226.403 136.186C234.106 134.212 241.095 136.902 244.998 143.207C248.844 149.42 248.069 156.982 242.988 163.012C226.248 182.875 221.506 205.3 228.7 230.244C230.886 237.82 228.545 244.913 222.378 249.081C216.301 253.189 208.998 252.891 202.871 248.026C180.754 230.46 158.65 212.878 136.626 195.195C129.821 189.732 127.054 182.432 128.84 173.849C130.632 165.243 136.16 159.758 144.58 157.492C160.352 153.247 176.184 149.219 192.261 145.051Z" fill="white"/>
<path d="M143.836 78.4032C136.078 69.3245 128.457 60.4908 120.901 51.6023C115.75 45.5436 115.103 38.0828 119.06 31.8114C122.959 25.63 130.096 23.0124 137.741 24.9361C162.934 31.2744 185.168 25.7065 204.433 8.30459C210.284 3.01972 217.686 2.01373 224.135 5.72895C230.491 9.39045 233.426 16.0855 231.738 23.7252C225.645 51.304 219.533 78.8785 213.295 106.425C211.367 114.937 206.019 120.624 197.521 122.781C189.001 124.943 181.647 122.379 175.92 115.805C165.191 103.489 154.631 91.0261 143.836 78.4032Z" fill="white"/>
<path d="M113.984 153.214C111.606 164.917 109.337 176.361 106.985 187.788C105.382 195.576 99.9008 200.679 92.5236 201.423C85.252 202.156 78.795 198.144 75.6041 190.934C65.0887 167.18 47.0125 153.088 21.4384 148.62C13.6717 147.263 8.32206 142.05 7.27913 134.68C6.2513 127.417 9.72049 120.983 16.7798 117.61C42.263 105.431 67.7555 93.2717 93.3026 81.2283C101.197 77.5068 108.971 78.22 115.902 83.5884C122.852 88.9707 125.359 96.345 123.704 104.906C120.605 120.943 117.285 136.937 113.984 153.214Z" fill="white"/>
<path d="M367.8 194L316.2 52.4H347.4L387 169.8L425.8 52.4H456.8L405.4 194H367.8ZM507.208 195.4C496.141 195.4 486.741 193.2 479.008 188.8C471.274 184.4 465.341 178.2 461.208 170.2C457.074 162.067 455.008 152.6 455.008 141.8C455.008 130.867 457.141 121.333 461.408 113.2C465.674 104.933 471.674 98.4667 479.408 93.8C487.274 89.1333 496.541 86.8 507.208 86.8C515.208 86.8 522.208 88.1333 528.208 90.8C534.341 93.4667 539.474 97.2 543.608 102C547.874 106.8 551.008 112.4 553.008 118.8C555.141 125.067 556.141 131.867 556.008 139.2C556.008 141.067 555.941 142.867 555.808 144.6C555.674 146.333 555.408 148.067 555.008 149.8H482.808C483.208 153.8 484.341 157.467 486.208 160.8C488.074 164.133 490.674 166.8 494.008 168.8C497.474 170.667 501.741 171.6 506.808 171.6C510.141 171.6 513.208 171.267 516.008 170.6C518.808 169.8 521.208 168.6 523.208 167C525.208 165.4 526.608 163.533 527.408 161.4H555.008C553.274 169.267 550.008 175.733 545.208 180.8C540.541 185.867 534.874 189.6 528.208 192C521.541 194.267 514.541 195.4 507.208 195.4ZM483.408 130.2H529.208C529.074 126.6 528.141 123.267 526.408 120.2C524.808 117 522.341 114.467 519.008 112.6C515.808 110.6 511.674 109.6 506.608 109.6C501.541 109.6 497.274 110.6 493.808 112.6C490.474 114.6 487.941 117.2 486.208 120.4C484.608 123.467 483.674 126.733 483.408 130.2ZM574.047 194V88.6H599.247L601.047 101.2C603.714 97.2 606.714 94.2 610.047 92.2C613.38 90.0667 616.847 88.6667 620.447 88C624.047 87.2 627.714 86.8 631.447 86.8C633.18 86.8 634.78 86.8667 636.247 87C637.714 87 638.78 87 639.447 87V114H632.847C626.58 114 621.114 115.067 616.447 117.2C611.78 119.333 608.18 122.667 605.647 127.2C603.247 131.733 602.047 137.533 602.047 144.6V194H574.047ZM652.563 194V88.6H678.763L680.163 100.8C683.096 97.2 686.429 94.4 690.163 92.4C694.029 90.2667 697.896 88.8 701.763 88C705.763 87.2 709.363 86.8 712.563 86.8C722.696 86.8 730.563 89 736.163 93.4C741.896 97.8 745.963 103.733 748.363 111.2C750.896 118.533 752.163 126.733 752.163 135.8V194H724.163V139.4C724.163 136.2 723.896 133 723.363 129.8C722.829 126.6 721.829 123.667 720.363 121C719.029 118.333 717.096 116.2 714.563 114.6C712.029 113 708.696 112.2 704.563 112.2C699.229 112.2 694.763 113.533 691.163 116.2C687.563 118.867 684.896 122.467 683.163 127C681.429 131.533 680.563 136.533 680.563 142V194H652.563ZM834.363 194V52.6H883.963C898.629 52.6 910.829 55.6 920.563 61.6C930.429 67.4667 937.829 75.7333 942.763 86.4C947.829 96.9333 950.363 109.267 950.363 123.4C950.363 137.4 947.896 149.733 942.963 160.4C938.029 170.933 930.629 179.2 920.763 185.2C910.896 191.067 898.629 194 883.963 194H834.363ZM848.763 181H882.763C894.629 181 904.429 178.533 912.163 173.6C920.029 168.667 925.896 161.933 929.763 153.4C933.629 144.733 935.563 134.733 935.563 123.4C935.563 112.333 933.696 102.467 929.963 93.8C926.229 85.1333 920.563 78.2667 912.963 73.2C905.363 68.1333 895.629 65.6 883.763 65.6H848.763V181ZM1020.31 195.2C1009.24 195.2 999.974 192.933 992.508 188.4C985.041 183.733 979.441 177.333 975.708 169.2C972.108 161.067 970.308 151.8 970.308 141.4C970.308 130.867 972.174 121.6 975.908 113.6C979.641 105.467 985.241 99.0667 992.708 94.4C1000.17 89.7333 1009.44 87.4 1020.51 87.4C1031.57 87.4 1040.77 89.7333 1048.11 94.4C1055.57 99.0667 1061.11 105.467 1064.71 113.6C1068.44 121.6 1070.31 130.867 1070.31 141.4C1070.31 151.8 1068.44 161.067 1064.71 169.2C1060.97 177.333 1055.37 183.733 1047.91 188.4C1040.57 192.933 1031.37 195.2 1020.31 195.2ZM1020.31 182.8C1028.57 182.8 1035.37 181 1040.71 177.4C1046.04 173.667 1049.97 168.667 1052.51 162.4C1055.04 156.133 1056.31 149.133 1056.31 141.4C1056.31 133.667 1055.04 126.667 1052.51 120.4C1049.97 114.133 1046.04 109.133 1040.71 105.4C1035.37 101.667 1028.57 99.8 1020.31 99.8C1012.04 99.8 1005.24 101.667 999.908 105.4C994.574 109.133 990.641 114.133 988.108 120.4C985.708 126.667 984.508 133.667 984.508 141.4C984.508 149.133 985.708 156.133 988.108 162.4C990.641 168.667 994.574 173.667 999.908 177.4C1005.24 181 1012.04 182.8 1020.31 182.8ZM1139.04 195.2C1127.97 195.2 1118.77 192.933 1111.44 188.4C1104.24 183.733 1098.84 177.333 1095.24 169.2C1091.64 161.067 1089.84 151.867 1089.84 141.6C1089.84 131.467 1091.71 122.333 1095.44 114.2C1099.17 105.933 1104.77 99.4 1112.24 94.6C1119.71 89.8 1129.17 87.4 1140.64 87.4C1147.44 87.4 1153.57 88.5333 1159.04 90.8C1164.51 92.9333 1169.11 96.2 1172.84 100.6C1176.57 104.867 1179.24 110.2 1180.84 116.6H1166.24C1164.11 110.6 1160.64 106.333 1155.84 103.8C1151.17 101.133 1145.77 99.8 1139.64 99.8C1131.24 99.8 1124.44 101.8 1119.24 105.8C1114.04 109.667 1110.17 114.8 1107.64 121.2C1105.24 127.467 1104.04 134.267 1104.04 141.6C1104.04 149.067 1105.24 155.933 1107.64 162.2C1110.17 168.467 1114.04 173.467 1119.24 177.2C1124.57 180.933 1131.37 182.8 1139.64 182.8C1145.64 182.8 1151.24 181.533 1156.44 179C1161.64 176.467 1165.24 172.133 1167.24 166H1182.04C1180.44 172.667 1177.44 178.2 1173.04 182.6C1168.77 186.867 1163.64 190.067 1157.64 192.2C1151.77 194.2 1145.57 195.2 1139.04 195.2ZM1241.99 195.2C1237.32 195.2 1232.66 194.8 1227.99 194C1223.32 193.067 1218.92 191.533 1214.79 189.4C1210.66 187.267 1207.12 184.4 1204.19 180.8C1201.39 177.2 1199.46 172.8 1198.39 167.6H1212.99C1214.59 171.467 1216.99 174.533 1220.19 176.8C1223.52 178.933 1227.19 180.467 1231.19 181.4C1235.19 182.333 1238.99 182.8 1242.59 182.8C1245.12 182.8 1247.92 182.667 1250.99 182.4C1254.19 182 1257.19 181.2 1259.99 180C1262.79 178.8 1265.06 177.067 1266.79 174.8C1268.66 172.533 1269.59 169.533 1269.59 165.8C1269.59 162.467 1268.79 159.8 1267.19 157.8C1265.72 155.8 1263.72 154.2 1261.19 153C1258.66 151.8 1255.86 150.933 1252.79 150.4C1247.99 149.333 1242.86 148.333 1237.39 147.4C1231.92 146.467 1226.99 144.8 1222.59 142.4C1219.92 141.467 1217.32 140.333 1214.79 139C1212.39 137.533 1210.19 135.8 1208.19 133.8C1206.19 131.8 1204.59 129.4 1203.39 126.6C1202.19 123.8 1201.59 120.533 1201.59 116.8C1201.59 111.6 1202.66 107.133 1204.79 103.4C1206.92 99.6667 1209.79 96.6 1213.39 94.2C1217.12 91.8 1221.39 90.0667 1226.19 89C1230.99 87.9333 1236.06 87.4 1241.39 87.4C1247.79 87.4 1253.66 88.4 1258.99 90.4C1264.46 92.2667 1268.99 95.1333 1272.59 99C1276.32 102.867 1278.66 107.733 1279.59 113.6H1266.39C1264.92 109.2 1261.86 105.8 1257.19 103.4C1252.52 101 1247.12 99.8 1240.99 99.8C1238.72 99.8 1236.12 100 1233.19 100.4C1230.26 100.8 1227.46 101.6 1224.79 102.8C1222.12 103.867 1219.92 105.533 1218.19 107.8C1216.46 109.933 1215.59 112.867 1215.59 116.6C1215.59 120.067 1216.46 122.933 1218.19 125.2C1219.92 127.467 1222.32 129.267 1225.39 130.6C1228.46 131.8 1231.79 132.867 1235.39 133.8C1239.79 134.733 1244.59 135.667 1249.79 136.6C1255.12 137.4 1259.52 138.333 1262.99 139.4C1267.39 140.733 1271.12 142.533 1274.19 144.8C1277.26 147.067 1279.59 149.867 1281.19 153.2C1282.79 156.4 1283.59 160.267 1283.59 164.8C1283.59 170.933 1282.39 176 1279.99 180C1277.59 183.867 1274.32 186.933 1270.19 189.2C1266.19 191.333 1261.72 192.867 1256.79 193.8C1251.86 194.733 1246.92 195.2 1241.99 195.2Z" fill="white"/>
<path d="M1352 127.5C1352 81.1081 1389.61 43.5 1436 43.5H1683C1729.39 43.5 1767 81.1081 1767 127.5C1767 173.892 1729.39 211.5 1683 211.5H1436C1389.61 211.5 1352 173.892 1352 127.5Z" fill="#FF8747"/>
<path d="M1439.4 160.5V89.7H1470.4C1473.67 89.7 1476.63 90.0333 1479.3 90.7C1482.03 91.3 1484.4 92.3 1486.4 93.7C1488.4 95.1 1489.93 96.9667 1491 99.3C1492.13 101.633 1492.7 104.6 1492.7 108.2C1492.7 111.133 1492.03 113.867 1490.7 116.4C1489.37 118.933 1487.4 120.867 1484.8 122.2C1488.27 123.333 1491 125.3 1493 128.1C1495 130.833 1496 134.467 1496 139C1496 143.067 1495.23 146.5 1493.7 149.3C1492.17 152.033 1490.07 154.233 1487.4 155.9C1484.73 157.567 1481.63 158.767 1478.1 159.5C1474.57 160.167 1470.8 160.5 1466.8 160.5H1439.4ZM1453.7 147.3H1468.5C1470.3 147.3 1471.97 147.167 1473.5 146.9C1475.1 146.633 1476.5 146.2 1477.7 145.6C1478.9 144.933 1479.83 144.033 1480.5 142.9C1481.23 141.767 1481.6 140.367 1481.6 138.7C1481.6 137.167 1481.3 135.9 1480.7 134.9C1480.17 133.833 1479.37 132.967 1478.3 132.3C1477.3 131.633 1476.1 131.167 1474.7 130.9C1473.37 130.633 1471.87 130.5 1470.2 130.5H1453.7V147.3ZM1453.7 118.6H1466.8C1468.6 118.6 1470.23 118.433 1471.7 118.1C1473.17 117.767 1474.4 117.233 1475.4 116.5C1476.4 115.767 1477.17 114.867 1477.7 113.8C1478.23 112.667 1478.5 111.367 1478.5 109.9C1478.57 107.9 1478.13 106.433 1477.2 105.5C1476.27 104.5 1475 103.833 1473.4 103.5C1471.8 103.1 1470 102.9 1468 102.9H1453.7V118.6ZM1507.18 160.5V89.7H1558.18V103H1521.48V119H1552.98V131.8H1521.48V147.3H1558.18V160.5H1507.18ZM1584.29 160.5V103H1562.69V89.7H1620.39V103H1598.69V160.5H1584.29ZM1615.21 160.5L1642.81 89.7H1658.81L1686.11 160.5H1670.71L1666.31 148.4H1635.01L1630.61 160.5H1615.21ZM1639.61 135.5H1661.81L1650.81 104.9L1639.61 135.5Z" fill="white"/>
</svg>
