<svg width="1792" height="280" viewBox="0 0 1792 280" fill="none" xmlns="http://www.w3.org/2000/svg">
<path d="M139.402 149.573C180.705 149.573 214.188 116.09 214.188 74.7863C214.188 33.483 180.705 0 139.402 0C98.0985 0 64.6155 33.483 64.6155 74.7863C64.6155 116.09 98.0985 149.573 139.402 149.573Z" fill="#6FD1B1"/>
<path d="M15.5557 280V230.581C15.5557 214.808 20.8001 199.682 30.1352 188.529C39.4704 177.377 52.1316 171.111 65.3334 171.111H214.667C227.869 171.111 240.53 177.377 249.865 188.529C259.2 199.682 264.445 214.808 264.445 230.581V280" fill="url(#paint0_linear_172_26)"/>
<path d="M392.8 206.5L341.2 64.9H372.4L412 182.3L450.8 64.9H481.8L430.4 206.5H392.8ZM532.208 207.9C521.141 207.9 511.741 205.7 504.008 201.3C496.274 196.9 490.341 190.7 486.208 182.7C482.074 174.567 480.008 165.1 480.008 154.3C480.008 143.367 482.141 133.833 486.408 125.7C490.674 117.433 496.674 110.967 504.408 106.3C512.274 101.633 521.541 99.3 532.208 99.3C540.208 99.3 547.208 100.633 553.208 103.3C559.341 105.967 564.474 109.7 568.608 114.5C572.874 119.3 576.008 124.9 578.008 131.3C580.141 137.567 581.141 144.367 581.008 151.7C581.008 153.567 580.941 155.367 580.808 157.1C580.674 158.833 580.408 160.567 580.008 162.3H507.808C508.208 166.3 509.341 169.967 511.208 173.3C513.074 176.633 515.674 179.3 519.008 181.3C522.474 183.167 526.741 184.1 531.808 184.1C535.141 184.1 538.208 183.767 541.008 183.1C543.808 182.3 546.208 181.1 548.208 179.5C550.208 177.9 551.608 176.033 552.408 173.9H580.008C578.274 181.767 575.008 188.233 570.208 193.3C565.541 198.367 559.874 202.1 553.208 204.5C546.541 206.767 539.541 207.9 532.208 207.9ZM508.408 142.7H554.208C554.074 139.1 553.141 135.767 551.408 132.7C549.808 129.5 547.341 126.967 544.008 125.1C540.808 123.1 536.674 122.1 531.608 122.1C526.541 122.1 522.274 123.1 518.808 125.1C515.474 127.1 512.941 129.7 511.208 132.9C509.608 135.967 508.674 139.233 508.408 142.7ZM599.047 206.5V101.1H624.247L626.047 113.7C628.714 109.7 631.714 106.7 635.047 104.7C638.38 102.567 641.847 101.167 645.447 100.5C649.047 99.7 652.714 99.3 656.447 99.3C658.18 99.3 659.78 99.3667 661.247 99.5C662.714 99.5 663.78 99.5 664.447 99.5V126.5H657.847C651.58 126.5 646.114 127.567 641.447 129.7C636.78 131.833 633.18 135.167 630.647 139.7C628.247 144.233 627.047 150.033 627.047 157.1V206.5H599.047ZM677.563 206.5V101.1H703.763L705.163 113.3C708.096 109.7 711.429 106.9 715.163 104.9C719.029 102.767 722.896 101.3 726.763 100.5C730.763 99.7 734.363 99.3 737.563 99.3C747.696 99.3 755.563 101.5 761.163 105.9C766.896 110.3 770.963 116.233 773.363 123.7C775.896 131.033 777.163 139.233 777.163 148.3V206.5H749.163V151.9C749.163 148.7 748.896 145.5 748.363 142.3C747.829 139.1 746.829 136.167 745.363 133.5C744.029 130.833 742.096 128.7 739.563 127.1C737.029 125.5 733.696 124.7 729.563 124.7C724.229 124.7 719.763 126.033 716.163 128.7C712.563 131.367 709.896 134.967 708.163 139.5C706.429 144.033 705.563 149.033 705.563 154.5V206.5H677.563ZM859.363 206.5V65.1H908.963C923.629 65.1 935.829 68.1 945.563 74.1C955.429 79.9667 962.829 88.2333 967.763 98.9C972.829 109.433 975.363 121.767 975.363 135.9C975.363 149.9 972.896 162.233 967.963 172.9C963.029 183.433 955.629 191.7 945.763 197.7C935.896 203.567 923.629 206.5 908.963 206.5H859.363ZM873.763 193.5H907.763C919.629 193.5 929.429 191.033 937.163 186.1C945.029 181.167 950.896 174.433 954.763 165.9C958.629 157.233 960.563 147.233 960.563 135.9C960.563 124.833 958.696 114.967 954.963 106.3C951.229 97.6333 945.563 90.7667 937.963 85.7C930.363 80.6333 920.629 78.1 908.763 78.1H873.763V193.5ZM1045.31 207.7C1034.24 207.7 1024.97 205.433 1017.51 200.9C1010.04 196.233 1004.44 189.833 1000.71 181.7C997.108 173.567 995.308 164.3 995.308 153.9C995.308 143.367 997.174 134.1 1000.91 126.1C1004.64 117.967 1010.24 111.567 1017.71 106.9C1025.17 102.233 1034.44 99.9 1045.51 99.9C1056.57 99.9 1065.77 102.233 1073.11 106.9C1080.57 111.567 1086.11 117.967 1089.71 126.1C1093.44 134.1 1095.31 143.367 1095.31 153.9C1095.31 164.3 1093.44 173.567 1089.71 181.7C1085.97 189.833 1080.37 196.233 1072.91 200.9C1065.57 205.433 1056.37 207.7 1045.31 207.7ZM1045.31 195.3C1053.57 195.3 1060.37 193.5 1065.71 189.9C1071.04 186.167 1074.97 181.167 1077.51 174.9C1080.04 168.633 1081.31 161.633 1081.31 153.9C1081.31 146.167 1080.04 139.167 1077.51 132.9C1074.97 126.633 1071.04 121.633 1065.71 117.9C1060.37 114.167 1053.57 112.3 1045.31 112.3C1037.04 112.3 1030.24 114.167 1024.91 117.9C1019.57 121.633 1015.64 126.633 1013.11 132.9C1010.71 139.167 1009.51 146.167 1009.51 153.9C1009.51 161.633 1010.71 168.633 1013.11 174.9C1015.64 181.167 1019.57 186.167 1024.91 189.9C1030.24 193.5 1037.04 195.3 1045.31 195.3ZM1164.04 207.7C1152.97 207.7 1143.77 205.433 1136.44 200.9C1129.24 196.233 1123.84 189.833 1120.24 181.7C1116.64 173.567 1114.84 164.367 1114.84 154.1C1114.84 143.967 1116.71 134.833 1120.44 126.7C1124.17 118.433 1129.77 111.9 1137.24 107.1C1144.71 102.3 1154.17 99.9 1165.64 99.9C1172.44 99.9 1178.57 101.033 1184.04 103.3C1189.51 105.433 1194.11 108.7 1197.84 113.1C1201.57 117.367 1204.24 122.7 1205.84 129.1H1191.24C1189.11 123.1 1185.64 118.833 1180.84 116.3C1176.17 113.633 1170.77 112.3 1164.64 112.3C1156.24 112.3 1149.44 114.3 1144.24 118.3C1139.04 122.167 1135.17 127.3 1132.64 133.7C1130.24 139.967 1129.04 146.767 1129.04 154.1C1129.04 161.567 1130.24 168.433 1132.64 174.7C1135.17 180.967 1139.04 185.967 1144.24 189.7C1149.57 193.433 1156.37 195.3 1164.64 195.3C1170.64 195.3 1176.24 194.033 1181.44 191.5C1186.64 188.967 1190.24 184.633 1192.24 178.5H1207.04C1205.44 185.167 1202.44 190.7 1198.04 195.1C1193.77 199.367 1188.64 202.567 1182.64 204.7C1176.77 206.7 1170.57 207.7 1164.04 207.7ZM1266.99 207.7C1262.32 207.7 1257.66 207.3 1252.99 206.5C1248.32 205.567 1243.92 204.033 1239.79 201.9C1235.66 199.767 1232.12 196.9 1229.19 193.3C1226.39 189.7 1224.46 185.3 1223.39 180.1H1237.99C1239.59 183.967 1241.99 187.033 1245.19 189.3C1248.52 191.433 1252.19 192.967 1256.19 193.9C1260.19 194.833 1263.99 195.3 1267.59 195.3C1270.12 195.3 1272.92 195.167 1275.99 194.9C1279.19 194.5 1282.19 193.7 1284.99 192.5C1287.79 191.3 1290.06 189.567 1291.79 187.3C1293.66 185.033 1294.59 182.033 1294.59 178.3C1294.59 174.967 1293.79 172.3 1292.19 170.3C1290.72 168.3 1288.72 166.7 1286.19 165.5C1283.66 164.3 1280.86 163.433 1277.79 162.9C1272.99 161.833 1267.86 160.833 1262.39 159.9C1256.92 158.967 1251.99 157.3 1247.59 154.9C1244.92 153.967 1242.32 152.833 1239.79 151.5C1237.39 150.033 1235.19 148.3 1233.19 146.3C1231.19 144.3 1229.59 141.9 1228.39 139.1C1227.19 136.3 1226.59 133.033 1226.59 129.3C1226.59 124.1 1227.66 119.633 1229.79 115.9C1231.92 112.167 1234.79 109.1 1238.39 106.7C1242.12 104.3 1246.39 102.567 1251.19 101.5C1255.99 100.433 1261.06 99.9 1266.39 99.9C1272.79 99.9 1278.66 100.9 1283.99 102.9C1289.46 104.767 1293.99 107.633 1297.59 111.5C1301.32 115.367 1303.66 120.233 1304.59 126.1H1291.39C1289.92 121.7 1286.86 118.3 1282.19 115.9C1277.52 113.5 1272.12 112.3 1265.99 112.3C1263.72 112.3 1261.12 112.5 1258.19 112.9C1255.26 113.3 1252.46 114.1 1249.79 115.3C1247.12 116.367 1244.92 118.033 1243.19 120.3C1241.46 122.433 1240.59 125.367 1240.59 129.1C1240.59 132.567 1241.46 135.433 1243.19 137.7C1244.92 139.967 1247.32 141.767 1250.39 143.1C1253.46 144.3 1256.79 145.367 1260.39 146.3C1264.79 147.233 1269.59 148.167 1274.79 149.1C1280.12 149.9 1284.52 150.833 1287.99 151.9C1292.39 153.233 1296.12 155.033 1299.19 157.3C1302.26 159.567 1304.59 162.367 1306.19 165.7C1307.79 168.9 1308.59 172.767 1308.59 177.3C1308.59 183.433 1307.39 188.5 1304.99 192.5C1302.59 196.367 1299.32 199.433 1295.19 201.7C1291.19 203.833 1286.72 205.367 1281.79 206.3C1276.86 207.233 1271.92 207.7 1266.99 207.7Z" fill="black"/>
<path d="M1377 140C1377 93.6081 1414.61 56 1461 56H1708C1754.39 56 1792 93.6081 1792 140V140C1792 186.392 1754.39 224 1708 224H1461C1414.61 224 1377 186.392 1377 140V140Z" fill="#FF8747"/>
<path d="M1464.4 173V102.2H1495.4C1498.67 102.2 1501.63 102.533 1504.3 103.2C1507.03 103.8 1509.4 104.8 1511.4 106.2C1513.4 107.6 1514.93 109.467 1516 111.8C1517.13 114.133 1517.7 117.1 1517.7 120.7C1517.7 123.633 1517.03 126.367 1515.7 128.9C1514.37 131.433 1512.4 133.367 1509.8 134.7C1513.27 135.833 1516 137.8 1518 140.6C1520 143.333 1521 146.967 1521 151.5C1521 155.567 1520.23 159 1518.7 161.8C1517.17 164.533 1515.07 166.733 1512.4 168.4C1509.73 170.067 1506.63 171.267 1503.1 172C1499.57 172.667 1495.8 173 1491.8 173H1464.4ZM1478.7 159.8H1493.5C1495.3 159.8 1496.97 159.667 1498.5 159.4C1500.1 159.133 1501.5 158.7 1502.7 158.1C1503.9 157.433 1504.83 156.533 1505.5 155.4C1506.23 154.267 1506.6 152.867 1506.6 151.2C1506.6 149.667 1506.3 148.4 1505.7 147.4C1505.17 146.333 1504.37 145.467 1503.3 144.8C1502.3 144.133 1501.1 143.667 1499.7 143.4C1498.37 143.133 1496.87 143 1495.2 143H1478.7V159.8ZM1478.7 131.1H1491.8C1493.6 131.1 1495.23 130.933 1496.7 130.6C1498.17 130.267 1499.4 129.733 1500.4 129C1501.4 128.267 1502.17 127.367 1502.7 126.3C1503.23 125.167 1503.5 123.867 1503.5 122.4C1503.57 120.4 1503.13 118.933 1502.2 118C1501.27 117 1500 116.333 1498.4 116C1496.8 115.6 1495 115.4 1493 115.4H1478.7V131.1ZM1532.18 173V102.2H1583.18V115.5H1546.48V131.5H1577.98V144.3H1546.48V159.8H1583.18V173H1532.18ZM1609.29 173V115.5H1587.69V102.2H1645.39V115.5H1623.69V173H1609.29ZM1640.21 173L1667.81 102.2H1683.81L1711.11 173H1695.71L1691.31 160.9H1660.01L1655.61 173H1640.21ZM1664.61 148H1686.81L1675.81 117.4L1664.61 148Z" fill="black"/>
<defs>
<linearGradient id="paint0_linear_172_26" x1="140" y1="171.111" x2="140" y2="226.154" gradientUnits="userSpaceOnUse">
<stop stop-color="#46CFA2"/>
<stop offset="1" stop-color="#10B981"/>
</linearGradient>
</defs>
</svg>
